<?xml version="1.0" encoding="utf-8"?>
<!-- Generator: Adobe Illustrator 16.0.0, SVG Export Plug-In . SVG Version: 6.00 Build 0)  -->
<!DOCTYPE svg PUBLIC "-//W3C//DTD SVG 1.1//EN" "http://www.w3.org/Graphics/SVG/1.1/DTD/svg11.dtd">
<svg version="1.1" id="Layer_1" xmlns="http://www.w3.org/2000/svg" xmlns:xlink="http://www.w3.org/1999/xlink" x="0px" y="0px"
	 width="1618.889px" height="396.808px" viewBox="0 0 1618.889 396.808" enable-background="new 0 0 1618.889 396.808"
	 xml:space="preserve">
<g>
	<path fill-rule="evenodd" clip-rule="evenodd" fill="#FFFFFF" d="M249.076,3.149c-35.169,13.523-63.07,36.254-83.579,67.659
		c-9.263,14.183-16.169,29.749-21.579,45.919c-9.567,28.592-13.715,58.048-14.431,88.056c-0.962,40.364,4.346,79.996,14.306,119.061
		c0.32,1.255,0.504,2.545,0.841,4.274c-10.687-1.109-21.091-1.956-31.532-2.061c-14.683-0.146-29.284,0.423-43.388,5.177
		c-3.487,1.176-6.818,2.663-9.882,4.699c-9,5.979-11.606,13.967-8.076,24.226c3.247,9.437,8.766,17.505,14.882,25.237
		c1.233,1.559,2.393,3.175,3.586,4.765c-0.239,0.317-0.478,0.635-0.716,0.953c-36.977-18.628-60.321-47.618-67.662-88.841
		c-0.412-2.313,0.028-4.939-1.847-6.891c0-11.667,0-23.333,0-35c2.547-7.174,2.724-14.818,4.443-22.173
		c8.496-36.334,24.774-69.036,46.746-98.892C101.148,71.43,166.596,25.452,247.616,1.833c0.474-0.139,0.975-0.185,1.462-0.272
		C249.077,2.089,249.076,2.62,249.076,3.149z"/>
	<path fill-rule="evenodd" clip-rule="evenodd" fill="#FFFFFF" d="M604.043,145.428c8.453-7.745,16.861-15.521,27.236-20.777
		c17.135-8.681,35.132-11.089,53.814-6.992c18.784,4.118,31.455,18.813,33.895,39.179c3.556,29.681-5.295,56.682-19.392,82.115
		c-11.647,21.015-28.139,37.459-50.301,47.582c-13.425,6.131-27.598,8.595-42.301,7.692c-17.224-1.058-26.478-7.382-36.832-25.174
		c-3.133,11.621-6.153,22.73-9.122,33.854c-5.446,20.401-10.947,40.788-16.205,61.237c-0.87,3.384-2.23,4.41-5.71,4.333
		c-11.274-0.251-22.559-0.094-34.227-0.094c6.59-24.746,13.028-48.992,19.505-73.229c15.189-56.84,30.438-113.663,45.504-170.535
		c0.996-3.761,2.457-5.006,6.349-4.882c9.488,0.305,19.001,0.34,28.486-0.002c4.747-0.171,5.124,1.412,3.929,5.402
		c-1.951,6.52-3.417,13.186-5.084,19.792c-0.092,0.383-0.344,1.051-0.256,1.1C603.93,146.359,603.941,145.809,604.043,145.428z
		 M678.152,185.402c0.039-28.993-14.776-41.488-38.264-37.558c-20.668,3.459-34.974,15.701-44.521,33.549
		c-7.911,14.789-11.512,31.226-13.979,47.629c-2.532,16.83,8.579,31.177,24.396,33.222c12.252,1.584,24.026-0.424,34.346-7.457
		C666.366,236.906,674.414,209.588,678.152,185.402z"/>
	<path fill-rule="evenodd" clip-rule="evenodd" fill="#FFFFFF" d="M1375.142,196.583c26.566-24.481,53.167-48.925,79.646-73.501
		c2.528-2.347,5.009-3.349,8.413-3.307c12.664,0.154,25.331,0.048,37.997,0.078c1.606,0.004,3.296-0.356,5.421,0.791
		c-9.463,8.159-18.624,16.07-27.8,23.966c-20.959,18.032-41.873,36.119-62.953,54.01c-2.727,2.313-2.425,3.788-0.77,6.466
		c16.541,26.749,32.951,53.578,49.372,80.401c0.832,1.359,2.16,2.541,2.016,4.73c-15.997,0-31.941-0.062-47.885,0.055
		c-2.987,0.021-3.422-2.215-4.397-3.982c-13.502-24.463-26.959-48.951-40.432-73.431c-0.634-1.151-1.312-2.278-2.28-3.955
		c-2.414,4.894-3.12,9.749-4.385,14.388c-5.688,20.858-11.318,41.733-16.703,62.671c-0.896,3.479-2.296,4.43-5.742,4.343
		c-9.66-0.244-19.333-0.224-28.994-0.017c-3.878,0.083-5.138-0.392-3.934-4.857c16.364-60.684,32.506-121.427,48.723-182.149
		c5.403-20.231,10.951-40.424,16.202-60.694c0.812-3.133,1.842-4.367,5.22-4.291c10.161,0.228,20.334,0.237,30.495,0.001
		c3.759-0.087,3.923,1.048,3.059,4.264c-13.333,49.617-26.547,99.267-39.778,148.912c-0.454,1.704-1.531,3.376-0.456,5.213
		c-0.354-0.5-0.635-0.513-0.822,0.111C1374.629,196.726,1374.885,196.655,1375.142,196.583z"/>
	<path fill-rule="evenodd" clip-rule="evenodd" fill="#FFFFFF" d="M1250.022,268.41c-5.518,4.231-10.266,9.372-16.095,13.257
		c-17.702,11.796-36.929,15.644-57.617,10.743c-18.713-4.433-28.744-19.953-25.828-39.055c5.517-36.129,28.527-59.204,65.26-64.889
		c17.594-2.723,35.27-4.963,52.956-7.005c4.862-0.562,7.166-2.388,7.275-7.188c0.05-2.159,0.433-4.312,0.461-6.472
		c0.175-13.149-6.518-20.529-19.71-21.41c-20.545-1.372-39.514,4.161-57.532,13.588c-2.503,1.309-4.953,2.717-7.435,4.066
		c-0.133,0.072-0.328,0.029-0.749,0.057c-0.813-1.572,0.07-3.083,0.457-4.543c2.083-7.874,4.529-15.665,6.254-23.614
		c0.841-3.873,2.612-6.073,6.195-7.412c25.22-9.429,50.899-15.808,78.077-11.134c23.499,4.04,35.341,19.729,33.601,43.514
		c-1.178,16.099-6.453,31.233-10.486,46.655c-6.856,26.211-14.036,52.337-20.877,78.552c-0.839,3.214-2.085,4.23-5.345,4.175
		c-11.148-0.193-22.302-0.074-33.482-0.074c0.551-7.699,4.669-14.371,4.537-21.927c0.223,0.012,0.445,0.021,0.668,0.032
		c-0.056-0.195-0.111-0.391-0.166-0.586C1250.302,267.963,1250.162,268.187,1250.022,268.41z M1212.898,263.525
		c9.009,0.337,16.979-2.234,24.447-6.623c17.997-10.577,25.493-27.715,29.442-47.086c0.423-2.075-0.499-2.202-2.149-1.951
		c-15.446,2.35-31.129,3.121-46.4,6.575c-16.035,3.627-25.281,13.483-27.409,28.522c-1.289,9.114,3.23,16.433,11.964,19.322
		C1206.154,263.397,1209.625,263.7,1212.898,263.525z"/>
	<path fill-rule="evenodd" clip-rule="evenodd" fill="#FFFFFF" d="M1049.602,144.92c9.559-8.632,19.005-16.639,30.501-21.956
		c15.48-7.16,31.604-8.976,48.224-5.559c17.577,3.614,27.154,16.43,27.531,35.916c0.278,14.35-3.411,28.003-7.048,41.669
		c-7.948,29.877-16.024,59.721-23.863,89.627c-1.084,4.136-2.603,5.962-7.286,5.738c-9.475-0.452-18.989-0.254-28.482-0.073
		c-3.519,0.067-4.548-0.442-3.48-4.377c8.702-32.08,17.172-64.223,25.651-96.362c1.837-6.964,2.593-14.082,1.931-21.276
		c-1.199-13.01-8.649-20.232-21.729-20.813c-17.207-0.763-30.321,7.331-41.269,19.721c-7.084,8.018-11.408,17.492-14.143,27.763
		c-8.04,30.195-16.151,60.373-24.091,90.595c-0.881,3.354-1.993,4.934-5.88,4.801c-9.819-0.336-19.664-0.323-29.484-0.011
		c-4.12,0.132-4.556-0.998-3.562-4.669c10.211-37.702,20.285-75.441,30.384-113.174c4.211-15.733,8.508-31.446,12.502-47.234
		c1.005-3.969,2.438-5.74,6.929-5.533c9.145,0.421,18.322,0.124,27.486,0.127c5.895,0.001,5.893,0.004,4.314,5.892
		C1053.023,132.126,1051.313,138.524,1049.602,144.92z"/>
	<path fill-rule="evenodd" clip-rule="evenodd" fill="#FFFFFF" d="M867.958,145.99c2.669-2.911,5.135-6.047,8.042-8.697
		c18.406-16.779,40.018-23.784,64.791-20.847c19.216,2.278,30.628,14.396,32.032,34.086c0.914,12.811-1.764,25.177-5.014,37.427
		c-8.609,32.451-17.385,64.859-25.894,97.337c-1.039,3.964-2.7,5.182-6.771,5.036c-9.65-0.344-19.326-0.28-28.982-0.026
		c-3.85,0.101-4.274-0.903-3.316-4.444c8.632-31.922,17.165-63.871,25.516-95.867c1.93-7.392,3.149-14.956,1.981-22.722
		c-1.921-12.771-9.114-19.397-22.155-19.861c-15.982-0.567-28.509,6.682-39.114,17.858c-8.086,8.521-12.931,18.818-15.923,30.105
		c-7.962,30.041-16.1,60.036-23.927,90.112c-0.99,3.807-2.489,4.944-6.326,4.83c-9.654-0.288-19.326-0.225-28.984-0.027
		c-3.502,0.071-4.706-0.615-3.69-4.383c14.571-54.082,29.065-108.186,43.465-162.313c0.725-2.724,1.671-3.865,4.62-3.819
		c10.326,0.164,20.658,0.132,30.986,0.021c2.989-0.032,4.221,0.342,3.134,3.874c-2.177,7.068-3.825,14.299-5.691,21.463
		C867.144,145.417,867.551,145.704,867.958,145.99z"/>
	<path fill-rule="evenodd" clip-rule="evenodd" fill="#FFFFFF" d="M231.172,21.547c-28.304,26.549-36.083,60.917-37.369,97.809
		c-0.464,13.331,0.188,26.675,1.464,39.863c1.289,13.309,4.413,26.474,7.242,39.592c6.064,28.121,15.313,55.238,26.23,81.836
		c4.134,10.073,9.37,19.617,13.453,29.694c-15.737,4.533-31.995,6.582-47.962,10.017c-11.292,2.43-22.807,3.814-33.881,7.261
		c-7.529-28.896-12.136-58.269-14.363-88.029c-1.793-23.973-1.854-47.98,1.127-71.812c6.775-54.145,24.991-102.714,69.788-137.68
		c4.328-3.378,8.734-6.669,13.625-9.23C230.729,21.106,230.944,21.333,231.172,21.547z"/>
	<path fill-rule="evenodd" clip-rule="evenodd" fill="#FFFFFF" d="M403.666,248.106c9.204,7.445,18.682,12.717,29.745,14.771
		c9.989,1.856,19.856,1.812,29.558-1.479c5.377-1.825,9.741-5.022,12.612-10.025c5.417-9.438,3.528-17.68-5.481-23.703
		c-5.408-3.615-11.314-6.314-17.125-9.198c-4.015-1.993-8.019-4.076-11.778-6.505c-16.435-10.612-21.078-22.322-16.74-41.322
		c5.451-23.88,21.201-38.784,42.869-47.812c22.196-9.249,45.002-9.31,67.899-2.058c3.967,1.256,5.548,2.756,4.046,7.349
		c-2.785,8.525-4.962,17.268-6.997,26.011c-0.851,3.657-1.859,3.254-4.457,1.541c-13.283-8.763-27.88-11.573-43.391-8.23
		c-11.336,2.443-18.461,10.269-20.037,20.918c-0.771,5.2,0.78,9.509,5.186,12.646c6.409,4.564,13.574,7.71,20.6,11.129
		c3.137,1.526,6.269,3.094,9.267,4.871c18.935,11.228,24.372,25.423,17.962,46.533c-5.665,18.659-17.922,31.958-34.992,40.334
		c-27.57,13.528-55.976,14.199-84.651,3.079c-2.95-1.144-4.007-2.316-2.973-5.802C397.946,270.499,400.595,259.693,403.666,248.106z
		"/>
	<path fill-rule="evenodd" clip-rule="evenodd" fill="#FFFFFF" d="M1551.761,150.679c4.218-4.69,7.711-9.717,11.866-14.22
		c12.969-14.056,28.595-21.419,48.062-19.129c1.316,0.155,2.62,0.416,3.935,0.593c3.328,0.449,4.215,1.606,2.182,4.836
		c-5.229,8.304-10.152,16.8-15.163,25.239c-1.588,2.673-2.589,3.886-6.906,3.568c-11.166-0.82-22.109,1.49-31.424,8.864
		c-13.627,10.787-21.738,25.011-26.222,41.441c-7.528,27.581-14.867,55.215-22.057,82.887c-1.111,4.274-2.818,5.797-7.378,5.592
		c-9.478-0.429-18.993-0.299-28.483-0.047c-3.825,0.102-4.292-0.868-3.329-4.435c11.312-41.884,22.467-83.81,33.656-125.727
		c3.214-12.042,6.482-24.07,9.552-36.149c0.769-3.024,1.971-4.325,5.348-4.244c10.158,0.245,20.327,0.187,30.488,0.033
		c3.274-0.05,3.968,0.935,3.089,4.033C1556.447,132.735,1554.149,141.72,1551.761,150.679z"/>
	<path fill-rule="evenodd" clip-rule="evenodd" fill="#FFFFFF" d="M220.227,58.797c-2.955,10.966-4.303,21.699-4.205,32.505
		c0.268,29.374,6.261,57.838,15.093,85.682c21.593,68.078,53.906,130.551,98.662,186.395c8.131,10.146,16.894,19.732,26.214,28.804
		c0.825,0.803,1.894,1.402,2.093,2.706c-1.505,0.856-2.487-0.407-3.574-0.967c-18.356-9.441-37.169-17.873-56.415-25.315
		c-3.419-1.321-5.918-3.202-7.969-6.246c-30.502-45.264-51.714-94.764-66.941-146.96c-8.081-27.699-13.658-55.911-14.906-84.807
		c-0.983-22.755,0.629-45.258,8.949-66.803C217.848,62.184,218.054,60.263,220.227,58.797z"/>
	<path fill-rule="evenodd" clip-rule="evenodd" fill="#FFFFFF" d="M714.765,290.221c3.468-12.978,6.808-25.473,10.146-37.968
		c11.367-42.561,22.772-85.112,34.029-127.702c0.896-3.388,2.043-4.942,5.892-4.816c9.489,0.312,19.002,0.322,28.49,0.008
		c4.571-0.152,5.611,0.813,4.345,5.475c-10.465,38.502-20.685,77.071-30.983,115.619c-4.033,15.092-8.16,30.159-12.057,45.286
		c-0.794,3.085-2.014,4.257-5.36,4.188C737.962,290.076,726.651,290.221,714.765,290.221z"/>
	<path fill-rule="evenodd" clip-rule="evenodd" fill="#FFFFFF" d="M160.35,327.619c11.074-3.446,22.589-4.831,33.881-7.261
		c15.967-3.435,32.225-5.483,47.962-10.017c8.335,15.82,17.102,31.391,27.913,47.428c-6.934-2.242-12.61-4.137-18.323-5.915
		c-22.753-7.084-45.728-13.329-69.104-18.013c-6.295-1.261-12.621-2.39-18.964-3.379
		C161.818,330.167,160.544,329.673,160.35,327.619z"/>
	<path fill-rule="evenodd" clip-rule="evenodd" fill="#FFFFFF" d="M785.855,97.511c-14.101,0.082-21.742-10.232-17.513-23.639
		c4.337-13.749,20.039-23.549,33.483-20.898c10.504,2.071,16.053,10.538,13.749,20.977C812.649,87.21,799.757,97.431,785.855,97.511
		z"/>
	<path fill-rule="evenodd" clip-rule="evenodd" fill="#FFFFFF" d="M249.076,3.149c0-0.529,0.001-1.06,0.002-1.589
		c2.744-0.997,5.508-1.898,8.646-1.435C254.841,1.133,251.959,2.141,249.076,3.149z"/>
	<path fill-rule="evenodd" clip-rule="evenodd" fill="#FFFFFF" d="M359.362,395.707c0.122,0.275,0.266,0.544,0.341,0.831
		c0.014,0.053-0.251,0.179-0.388,0.271c-0.134-0.298-0.275-0.593-0.383-0.899C358.927,395.894,359.212,395.777,359.362,395.707z"/>
	<path fill-rule="evenodd" clip-rule="evenodd" fill="#FFFFFF" d="M230.527,20.867c0.373-0.093,0.969-0.373,1.078-0.243
		c0.364,0.435,0.024,0.752-0.433,0.924C230.944,21.333,230.729,21.106,230.527,20.867z"/>
	<path fill-rule="evenodd" clip-rule="evenodd" fill="#FFFFFF" d="M70.225,390.161c0.235,0.303,0.735,0.726,0.661,0.889
		c-0.352,0.781-0.896,0.276-1.376,0.063C69.747,390.795,69.986,390.478,70.225,390.161z"/>
</g>
</svg>
